HIERARCHY
ROOT joint_Root
{
	OFFSET 0.0 0.0 0.0
	CHANNELS 6 Xposition Yposition Zposition Zrotation Xrotation Yrotation 
	JOINT Hips
	{
		OFFSET 4.5925 91.4895 -427.239
		CHANNELS 6 Xposition Yposition Zposition Zrotation Xrotation Yrotation 
		JOINT Spine
		{
			OFFSET 15.7357 0.0 0.0
			CHANNELS 6 Xposition Yposition Zposition Zrotation Xrotation Yrotation 
			JOINT Chest
			{
				OFFSET 8.98455 -0.406207 0.0
				CHANNELS 6 Xposition Yposition Zposition Zrotation Xrotation Yrotation 
				JOINT Neck
				{
					OFFSET 16.3773 0.0 0.0
					CHANNELS 6 Xposition Yposition Zposition Zrotation Xrotation Yrotation 
					JOINT Head
					{
						OFFSET 6.45672 0.0 0.0
						CHANNELS 6 Xposition Yposition Zposition Zrotation Xrotation Yrotation 
						End Site
						{
							OFFSET 0.0 0.0 0.0
						}
					}
				}
				JOINT Shoulder_L
				{
					OFFSET 12.9942 -0.242716 4.98039
					CHANNELS 6 Xposition Yposition Zposition Zrotation Xrotation Yrotation 
					JOINT UpperArm_L
					{
						OFFSET 5.34809 0.0 0.0
						CHANNELS 6 Xposition Yposition Zposition Zrotation Xrotation Yrotation 
						JOINT LowerArm_L
						{
							OFFSET 24.3286 1.87007e-05 0.0
							CHANNELS 6 Xposition Yposition Zposition Zrotation Xrotation Yrotation 
							JOINT Hand_L
							{
								OFFSET 22.2916 0.0 0.0
								CHANNELS 6 Xposition Yposition Zposition Zrotation Xrotation Yrotation 
								End Site
								{
									OFFSET 0.0 0.0 0.0
								}
							}
						}
					}
				}
				JOINT Shoulder_R
				{
					OFFSET 12.9945 -0.242716 -4.98039
					CHANNELS 6 Xposition Yposition Zposition Zrotation Xrotation Yrotation 
					JOINT UpperArm_R
					{
						OFFSET -5.34813 0.0 0.0
						CHANNELS 6 Xposition Yposition Zposition Zrotation Xrotation Yrotation 
						JOINT LowerArm_R
						{
							OFFSET -24.3289 0.000322201 0.0
							CHANNELS 6 Xposition Yposition Zposition Zrotation Xrotation Yrotation 
							JOINT Hand_R
							{
								OFFSET -22.2915 -0.000108084 0.0
								CHANNELS 6 Xposition Yposition Zposition Zrotation Xrotation Yrotation 
								End Site
								{
									OFFSET 0.0 0.0 0.0
								}
							}
						}
					}
				}
			}
		}
		JOINT UpperLeg_L
		{
			OFFSET -2.19248 -6.46944 0.0
			CHANNELS 6 Xposition Yposition Zposition Zrotation Xrotation Yrotation 
			JOINT LowerLeg_L
			{
				OFFSET 39.0811 0.0 -1.23785e-05
				CHANNELS 6 Xposition Yposition Zposition Zrotation Xrotation Yrotation 
				JOINT Foot_L
				{
					OFFSET 40.9854 0.0 -1.26872e-05
					CHANNELS 6 Xposition Yposition Zposition Zrotation Xrotation Yrotation 
					JOINT Toes_L
					{
						OFFSET 11.7543 0.0 0.0
						CHANNELS 6 Xposition Yposition Zposition Zrotation Xrotation Yrotation 
						End Site
						{
							OFFSET 0.0 0.0 0.0
						}
					}
				}
			}
		}
		JOINT UpperLeg_R
		{
			OFFSET -2.19251 6.46944 0.0
			CHANNELS 6 Xposition Yposition Zposition Zrotation Xrotation Yrotation 
			JOINT LowerLeg_R
			{
				OFFSET -39.0811 -0.00228153 -0.0401928
				CHANNELS 6 Xposition Yposition Zposition Zrotation Xrotation Yrotation 
				JOINT Foot_R
				{
					OFFSET -40.9854 0.0 0.0
					CHANNELS 6 Xposition Yposition Zposition Zrotation Xrotation Yrotation 
					JOINT Toes_R
					{
						OFFSET -11.7543 0.0 0.0
						CHANNELS 6 Xposition Yposition Zposition Zrotation Xrotation Yrotation 
						End Site
						{
							OFFSET 0.0 0.0 0.0
						}
					}
				}
			}
		}
	}
}
MOTION
Frames:	6
Frame Time:	0.0333333
0.000000 0.000000 0.000000 0.000000 0.000000 -0.000000 2.484090 96.464600 40.424100 -91.485200 -11.558000 167.457000 15.735700 0.000005 -0.000001 31.774100 79.467500 -30.729400 8.984550 -0.406207 -0.000000 3.643890 -17.924100 2.674900 16.377300 -0.000001 -0.000001 2.821880 -1.666950 0.240997 6.456720 -0.000001 -0.000000 0.679768 7.176580 2.314540 12.994200 -0.242716 4.980390 -87.189200 -9.724770 -73.792800 5.348090 -0.000007 -0.000001 -58.189200 20.152400 -35.858700 24.328600 0.000019 0.000005 10.451500 -6.152310 -120.156000 22.291600 -0.000001 0.000005 -6.490570 5.397520 -2.856730 12.994500 -0.242716 -4.980390 92.085600 -4.924460 -67.011600 -5.348130 -0.000001 -0.000004 -75.359800 26.799500 45.611400 -24.328900 0.000322 -0.000009 -13.118500 -4.552090 -71.191300 -22.291500 -0.000108 -0.000004 3.964960 5.611370 -12.046300 -2.192480 -6.469440 -0.000000 -168.788000 -9.803200 13.991600 39.081100 -0.000007 -0.000012 0.184653 -0.260013 35.381200 40.985400 -0.000006 -0.000013 -4.802410 2.320650 -27.657500 11.754300 -0.000000 0.000003 -0.002447 -0.034180 -17.966700 -2.192510 6.469440 -0.000001 -173.118000 16.034000 143.514000 -39.081100 -0.002282 -0.040193 -0.028786 0.131263 13.749300 -40.985400 0.000008 0.000006 -8.159110 21.245500 -61.724200 -11.754300 -0.000006 -0.000006 -0.018960 -0.161457 -23.167700
0.000000 0.000000 0.000000 0.000000 0.000000 -0.000000 2.027880 94.942800 28.226800 -93.328700 -11.144500 168.729000 15.735700 0.000005 -0.000001 33.844000 79.714600 -33.176800 8.984550 -0.406207 -0.000000 3.937770 -17.084200 1.932300 16.377300 -0.000001 -0.000001 2.637180 -2.305300 0.011060 6.456720 -0.000001 -0.000000 0.732874 6.421370 2.154440 12.994200 -0.242716 4.980390 -87.504800 -9.260380 -74.847700 5.348090 -0.000007 -0.000001 -60.726500 24.011800 -29.937400 24.328600 0.000019 0.000005 10.715000 -5.309740 -116.060000 22.291600 -0.000001 0.000005 -4.817470 5.405230 -3.107830 12.994500 -0.242716 -4.980390 91.536400 -3.583400 -66.774200 -5.348130 -0.000001 -0.000004 -74.597000 24.241300 43.389600 -24.328900 0.000322 -0.000009 -13.030400 -3.965370 -73.361100 -22.291500 -0.000108 -0.000004 5.078260 5.619960 -12.615000 -2.192480 -6.469440 -0.000000 -171.352000 -6.330500 14.433800 39.081100 -0.000007 -0.000012 0.301947 -0.260949 49.165700 40.985400 -0.000006 -0.000013 -3.168770 0.540720 -26.923100 11.754300 -0.000000 0.000003 -0.001642 -0.024153 -17.558900 -2.192510 6.469440 -0.000001 -166.596000 28.896500 143.953000 -39.081100 -0.002282 -0.040193 -0.014907 0.149205 6.973730 -40.985400 0.000008 0.000006 -12.053400 28.340000 -64.398100 -11.754300 -0.000006 -0.000006 -0.020462 -0.169836 -23.512800
0.000000 0.000000 0.000000 0.000000 0.000000 -0.000000 1.605350 92.293400 16.265400 -93.384600 -9.714810 170.733000 15.735700 0.000005 -0.000001 39.683000 80.224900 -38.811000 8.984550 -0.406207 -0.000000 4.970800 -15.038100 2.406250 16.377300 -0.000001 -0.000001 1.938210 -2.312280 -0.566699 6.456720 -0.000001 -0.000000 0.665525 5.101390 1.766030 12.994200 -0.242716 4.980390 -87.874300 -7.823130 -74.746800 5.348090 -0.000007 -0.000001 -63.316200 28.061500 -23.565100 24.328600 0.000019 0.000005 8.751830 -2.967430 -108.583000 22.291600 -0.000001 0.000005 -1.757780 5.407120 -3.170830 12.994500 -0.242716 -4.980390 90.264800 -0.653994 -67.970100 -5.348130 -0.000001 -0.000004 -72.531500 23.148800 38.677100 -24.328900 0.000322 -0.000009 -12.630900 -3.474780 -74.863600 -22.291500 -0.000108 -0.000004 6.980290 5.628860 -13.249000 -2.192480 -6.469440 -0.000000 -172.353000 -5.236890 12.004700 39.081100 -0.000007 -0.000012 0.533740 -0.215879 67.978500 40.985400 -0.000006 -0.000013 -4.877490 -0.900304 -21.522700 11.754300 -0.000000 0.000003 -0.001065 -0.016329 -17.240800 -2.192510 6.469440 -0.000001 -168.251000 28.502100 145.470000 -39.081100 -0.002282 -0.040193 -0.023641 0.107840 14.042500 -40.985400 0.000008 0.000006 -7.717500 16.546700 -71.844300 -11.754300 -0.000006 -0.000006 -0.020503 -0.170058 -23.522000
0.000000 0.000000 0.000000 0.000000 0.000000 -0.000000 1.534770 88.906300 5.945870 -90.811200 -7.350280 170.190000 15.735700 0.000005 -0.000001 45.732900 81.365200 -43.685700 8.984550 -0.406207 -0.000000 4.908510 -12.082900 4.621420 16.377300 -0.000001 -0.000001 1.042170 -1.368620 -1.225830 6.456720 -0.000001 -0.000000 -0.495153 3.633690 1.250340 12.994200 -0.242716 4.980390 -88.689600 -4.757910 -74.582000 5.348090 -0.000007 -0.000001 -65.487100 30.053300 -15.540200 24.328600 0.000019 0.000005 7.167070 -0.794805 -96.300500 22.291600 -0.000001 0.000005 -0.761780 5.408320 -3.210120 12.994500 -0.242716 -4.980390 88.557100 4.286980 -71.373300 -5.348130 -0.000001 -0.000004 -67.840900 22.745500 30.627700 -24.328900 0.000322 -0.000009 -12.138000 -3.110600 -75.837500 -22.291500 -0.000108 -0.000004 9.216340 5.641280 -14.230800 -2.192480 -6.469440 -0.000000 -171.505000 -6.522960 1.720040 39.081100 -0.000007 -0.000012 0.812839 0.019783 91.393400 40.985400 -0.000006 -0.000013 -5.552390 -3.556150 -13.358900 11.754300 -0.000000 0.000003 -0.001035 -0.015906 -17.223700 -2.192510 6.469440 -0.000001 -165.452000 22.982000 138.048000 -39.081100 -0.002282 -0.040193 0.528896 -0.806757 33.085800 -40.985400 0.000008 0.000006 10.632100 3.884680 -67.634400 -11.754300 -0.000006 -0.000006 -0.030904 -0.221578 -25.652800
0.000000 0.000000 0.000000 0.000000 0.000000 -0.000000 1.771240 85.175700 -3.947510 -88.689500 -5.405960 169.840000 15.735700 0.000005 -0.000001 54.549700 82.262600 -51.466500 8.984550 -0.406207 -0.000000 5.142000 -9.027830 6.575640 16.377300 -0.000001 -0.000001 -1.485950 -0.759646 -1.566440 6.456720 -0.000001 -0.000000 -1.441560 2.365400 -0.197433 12.994200 -0.242716 4.980390 -89.739300 -0.938047 -74.467300 5.348090 -0.000007 -0.000001 -66.066700 30.128000 -8.423980 24.328600 0.000019 0.000005 12.570600 2.896080 -77.243400 22.291600 -0.000001 0.000005 -3.097580 5.422990 -3.699970 12.994500 -0.242716 -4.980390 87.139200 10.534000 -74.711500 -5.348130 -0.000001 -0.000004 -59.248600 23.717000 18.227900 -24.328900 0.000322 -0.000009 -13.386500 -2.816940 -78.330300 -22.291500 -0.000108 -0.000004 12.144500 5.643300 -14.407700 -2.192480 -6.469440 -0.000000 -171.546000 -6.829000 -12.473100 39.081100 -0.000007 -0.000012 0.757961 0.337720 114.014000 40.985400 -0.000006 -0.000013 -6.215370 -4.558790 -4.488200 11.754300 -0.000000 0.000003 -0.000749 -0.011778 -17.055900 -2.192510 6.469440 -0.000001 -167.817000 14.624300 135.557000 -39.081100 -0.002282 -0.040193 -0.434233 0.363084 50.309900 -40.985400 0.000008 0.000006 8.413270 -2.376740 -68.792800 -11.754300 -0.000006 -0.000006 -0.010077 -0.104215 -20.819200
0.000000 0.000000 0.000000 0.000000 0.000000 -0.000000 2.208810 81.717300 -13.834300 -85.619700 -0.848235 172.685000 15.735700 0.000005 -0.000001 74.753500 81.978600 -70.806300 8.984550 -0.406207 -0.000000 7.885440 -4.197000 8.179010 16.377300 -0.000001 -0.000001 -3.410430 -0.256696 -1.199600 6.456720 -0.000001 -0.000000 -2.843800 2.046850 -2.258530 12.994200 -0.242716 4.980390 -90.224500 0.823438 -74.748600 5.348090 -0.000007 -0.000001 -66.322700 29.671800 -3.920300 24.328600 0.000019 0.000005 17.204600 14.027000 -51.955000 22.291600 -0.000001 0.000005 -2.583890 5.469840 -5.368220 12.994500 -0.242716 -4.980390 86.958600 13.313800 -77.008000 -5.348130 -0.000001 -0.000004 -50.825500 24.143700 -2.740710 -24.328900 0.000322 -0.000009 -10.088100 -1.241500 -83.055400 -22.291500 -0.000108 -0.000004 15.936200 5.646870 -14.723300 -2.192480 -6.469440 -0.000000 -170.906000 -6.701710 -27.403400 39.081100 -0.000007 -0.000012 0.207437 0.180636 131.045000 40.985400 -0.000006 -0.000013 -9.897530 0.731571 6.516880 11.754300 -0.000000 0.000003 -0.000483 -0.007766 -16.892900 -2.192510 6.469440 -0.000001 -166.654000 9.958720 141.268000 -39.081100 -0.002282 -0.040193 -0.711428 0.389450 61.412100 -40.985400 0.000008 0.000006 9.554820 -5.840560 -81.408500 -11.754300 -0.000006 -0.000006 -0.005504 -0.066264 -19.269600
